<mxfile host="65bd71144e">
    <diagram id="BAa5Jd48XmJqehOiTuSv" name="PÃ¡gina-1">
        <mxGraphModel dx="896" dy="619" grid="1" gridSize="10" guides="1" tooltips="1" connect="1" arrows="1" fold="1" page="1" pageScale="1" pageWidth="1169" pageHeight="827" math="0" shadow="0">
            <root>
                <mxCell id="0"/>
                <mxCell id="1" parent="0"/>
                <mxCell id="36" style="edgeStyle=none;html=1;entryX=0;entryY=0.5;entryDx=0;entryDy=0;fontSize=16;" edge="1" parent="1" source="3" target="35">
                    <mxGeometry relative="1" as="geometry"/>
                </mxCell>
                <mxCell id="37" style="edgeStyle=none;html=1;fontSize=16;" edge="1" parent="1" source="3" target="38">
                    <mxGeometry relative="1" as="geometry">
                        <mxPoint x="1020" y="150" as="targetPoint"/>
                    </mxGeometry>
                </mxCell>
                <mxCell id="39" style="edgeStyle=none;html=1;fontSize=16;" edge="1" parent="1" source="3" target="40">
                    <mxGeometry relative="1" as="geometry">
                        <mxPoint x="1000" y="200" as="targetPoint"/>
                    </mxGeometry>
                </mxCell>
                <mxCell id="41" style="edgeStyle=none;html=1;fontSize=16;" edge="1" parent="1" source="3" target="42">
                    <mxGeometry relative="1" as="geometry">
                        <mxPoint x="980" y="250" as="targetPoint"/>
                    </mxGeometry>
                </mxCell>
                <mxCell id="3" value="Directores" style="ellipse;whiteSpace=wrap;html=1;fontSize=31;" vertex="1" parent="1">
                    <mxGeometry x="710" y="70" width="260" height="100" as="geometry"/>
                </mxCell>
                <mxCell id="4" value="Proveedores" style="ellipse;whiteSpace=wrap;html=1;fontSize=31;" vertex="1" parent="1">
                    <mxGeometry x="20" y="100" width="310" height="100" as="geometry"/>
                </mxCell>
                <mxCell id="43" style="edgeStyle=none;html=1;fontSize=16;" edge="1" parent="1" source="5" target="44">
                    <mxGeometry relative="1" as="geometry">
                        <mxPoint x="340" y="290" as="targetPoint"/>
                    </mxGeometry>
                </mxCell>
                <mxCell id="45" style="edgeStyle=none;html=1;fontSize=16;" edge="1" parent="1" source="5" target="46">
                    <mxGeometry relative="1" as="geometry">
                        <mxPoint x="370" y="250" as="targetPoint"/>
                    </mxGeometry>
                </mxCell>
                <mxCell id="47" style="edgeStyle=none;html=1;fontSize=16;" edge="1" parent="1" source="5" target="48">
                    <mxGeometry relative="1" as="geometry">
                        <mxPoint x="450" y="240" as="targetPoint"/>
                    </mxGeometry>
                </mxCell>
                <mxCell id="49" style="edgeStyle=none;html=1;fontSize=16;" edge="1" parent="1" source="5" target="50">
                    <mxGeometry relative="1" as="geometry">
                        <mxPoint x="550" y="180" as="targetPoint"/>
                    </mxGeometry>
                </mxCell>
                <mxCell id="51" style="edgeStyle=none;html=1;fontSize=16;" edge="1" parent="1" source="5" target="52">
                    <mxGeometry relative="1" as="geometry">
                        <mxPoint x="610" y="230" as="targetPoint"/>
                    </mxGeometry>
                </mxCell>
                <mxCell id="57" style="edgeStyle=none;html=1;fontSize=16;" edge="1" parent="1" source="5" target="58">
                    <mxGeometry relative="1" as="geometry">
                        <mxPoint x="490" y="90" as="targetPoint"/>
                    </mxGeometry>
                </mxCell>
                <mxCell id="66" style="edgeStyle=none;html=1;fontSize=16;" edge="1" parent="1" source="5" target="67">
                    <mxGeometry relative="1" as="geometry">
                        <mxPoint x="700" y="270" as="targetPoint"/>
                    </mxGeometry>
                </mxCell>
                <mxCell id="5" value="Contenidos" style="ellipse;whiteSpace=wrap;html=1;fontSize=31;" vertex="1" parent="1">
                    <mxGeometry x="360" y="305" width="270" height="120" as="geometry"/>
                </mxCell>
                <mxCell id="60" style="edgeStyle=none;html=1;entryX=0.415;entryY=0.938;entryDx=0;entryDy=0;entryPerimeter=0;fontSize=16;" edge="1" parent="1" source="6" target="59">
                    <mxGeometry relative="1" as="geometry"/>
                </mxCell>
                <mxCell id="6" value="Generos" style="ellipse;whiteSpace=wrap;html=1;fontSize=31;" vertex="1" parent="1">
                    <mxGeometry x="40" y="500" width="270" height="110" as="geometry"/>
                </mxCell>
                <mxCell id="7" value="" style="rhombus;whiteSpace=wrap;html=1;fontSize=31;" vertex="1" parent="1">
                    <mxGeometry x="80" y="300" width="80" height="80" as="geometry"/>
                </mxCell>
                <mxCell id="8" value="" style="rhombus;whiteSpace=wrap;html=1;fontSize=31;" vertex="1" parent="1">
                    <mxGeometry x="770" y="220" width="80" height="80" as="geometry"/>
                </mxCell>
                <mxCell id="12" value="N" style="endArrow=none;html=1;fontSize=31;entryX=0.5;entryY=1;entryDx=0;entryDy=0;exitX=0.996;exitY=0.438;exitDx=0;exitDy=0;exitPerimeter=0;" edge="1" parent="1" source="5" target="8">
                    <mxGeometry width="50" height="50" relative="1" as="geometry">
                        <mxPoint x="430" y="340" as="sourcePoint"/>
                        <mxPoint x="480" y="290" as="targetPoint"/>
                    </mxGeometry>
                </mxCell>
                <mxCell id="13" value="1" style="endArrow=none;html=1;fontSize=31;entryX=0.5;entryY=0;entryDx=0;entryDy=0;" edge="1" parent="1" source="4" target="7">
                    <mxGeometry width="50" height="50" relative="1" as="geometry">
                        <mxPoint x="430" y="340" as="sourcePoint"/>
                        <mxPoint x="480" y="290" as="targetPoint"/>
                    </mxGeometry>
                </mxCell>
                <mxCell id="14" value="N" style="endArrow=none;html=1;fontSize=31;exitX=0;exitY=0.5;exitDx=0;exitDy=0;entryX=0.5;entryY=1;entryDx=0;entryDy=0;" edge="1" parent="1" source="5" target="7">
                    <mxGeometry width="50" height="50" relative="1" as="geometry">
                        <mxPoint x="430" y="340" as="sourcePoint"/>
                        <mxPoint x="480" y="290" as="targetPoint"/>
                    </mxGeometry>
                </mxCell>
                <mxCell id="15" value="1" style="endArrow=none;html=1;fontSize=31;entryX=0.5;entryY=0;entryDx=0;entryDy=0;" edge="1" parent="1" source="3" target="8">
                    <mxGeometry width="50" height="50" relative="1" as="geometry">
                        <mxPoint x="760" y="160" as="sourcePoint"/>
                        <mxPoint x="760" y="210" as="targetPoint"/>
                    </mxGeometry>
                </mxCell>
                <mxCell id="19" value="N" style="endArrow=none;html=1;fontSize=31;exitX=1;exitY=0.5;exitDx=0;exitDy=0;entryX=0.462;entryY=0.986;entryDx=0;entryDy=0;entryPerimeter=0;" edge="1" parent="1" source="18" target="5">
                    <mxGeometry width="50" height="50" relative="1" as="geometry">
                        <mxPoint x="430" y="510" as="sourcePoint"/>
                        <mxPoint x="480" y="460" as="targetPoint"/>
                    </mxGeometry>
                </mxCell>
                <mxCell id="20" value="N" style="endArrow=none;html=1;fontSize=31;entryX=0;entryY=0.5;entryDx=0;entryDy=0;exitX=1.003;exitY=0.394;exitDx=0;exitDy=0;exitPerimeter=0;" edge="1" parent="1" source="6" target="18">
                    <mxGeometry width="50" height="50" relative="1" as="geometry">
                        <mxPoint x="430" y="510" as="sourcePoint"/>
                        <mxPoint x="480" y="460" as="targetPoint"/>
                    </mxGeometry>
                </mxCell>
                <mxCell id="63" style="edgeStyle=none;html=1;fontSize=16;" edge="1" parent="1" source="21" target="64">
                    <mxGeometry relative="1" as="geometry">
                        <mxPoint x="590" y="660" as="targetPoint"/>
                    </mxGeometry>
                </mxCell>
                <mxCell id="68" style="edgeStyle=none;html=1;fontSize=16;" edge="1" parent="1" source="21">
                    <mxGeometry relative="1" as="geometry">
                        <mxPoint x="740" y="650" as="targetPoint"/>
                    </mxGeometry>
                </mxCell>
                <mxCell id="21" value="Imagenes" style="ellipse;whiteSpace=wrap;html=1;fontSize=31;" vertex="1" parent="1">
                    <mxGeometry x="580" y="520" width="220" height="80" as="geometry"/>
                </mxCell>
                <mxCell id="22" value="" style="rhombus;whiteSpace=wrap;html=1;fontSize=31;" vertex="1" parent="1">
                    <mxGeometry x="700" y="390" width="80" height="80" as="geometry"/>
                </mxCell>
                <mxCell id="26" value="N" style="endArrow=none;html=1;fontSize=31;startArrow=none;exitX=0.533;exitY=0.021;exitDx=0;exitDy=0;exitPerimeter=0;entryX=0.498;entryY=0.896;entryDx=0;entryDy=0;entryPerimeter=0;" edge="1" parent="1" source="21" target="22">
                    <mxGeometry width="50" height="50" relative="1" as="geometry">
                        <mxPoint x="430" y="510" as="sourcePoint"/>
                        <mxPoint x="480" y="460" as="targetPoint"/>
                    </mxGeometry>
                </mxCell>
                <mxCell id="27" value="1" style="endArrow=none;html=1;fontSize=31;exitX=0.993;exitY=0.597;exitDx=0;exitDy=0;exitPerimeter=0;entryX=0.144;entryY=0.25;entryDx=0;entryDy=0;entryPerimeter=0;" edge="1" parent="1" source="5" target="22">
                    <mxGeometry width="50" height="50" relative="1" as="geometry">
                        <mxPoint x="430" y="510" as="sourcePoint"/>
                        <mxPoint x="620" y="490" as="targetPoint"/>
                    </mxGeometry>
                </mxCell>
                <mxCell id="28" value="" style="endArrow=none;html=1;fontSize=31;" edge="1" parent="1" target="18">
                    <mxGeometry width="50" height="50" relative="1" as="geometry">
                        <mxPoint x="430" y="510" as="sourcePoint"/>
                        <mxPoint x="480" y="460" as="targetPoint"/>
                    </mxGeometry>
                </mxCell>
                <mxCell id="18" value="" style="rhombus;whiteSpace=wrap;html=1;fontSize=31;" vertex="1" parent="1">
                    <mxGeometry x="370" y="470" width="80" height="80" as="geometry"/>
                </mxCell>
                <mxCell id="29" value="Adminitradores" style="ellipse;whiteSpace=wrap;html=1;fontSize=31;" vertex="1" parent="1">
                    <mxGeometry x="200" y="670" width="270" height="80" as="geometry"/>
                </mxCell>
                <mxCell id="30" value="" style="endArrow=classic;html=1;fontSize=31;exitX=0.725;exitY=0.025;exitDx=0;exitDy=0;exitPerimeter=0;" edge="1" parent="1" source="4" target="31">
                    <mxGeometry width="50" height="50" relative="1" as="geometry">
                        <mxPoint x="400" y="180" as="sourcePoint"/>
                        <mxPoint x="340" y="10" as="targetPoint"/>
                    </mxGeometry>
                </mxCell>
                <mxCell id="31" value="&lt;font style=&quot;font-size: 16px;&quot;&gt;Nombre&lt;/font&gt;" style="rounded=0;whiteSpace=wrap;html=1;fontSize=31;" vertex="1" parent="1">
                    <mxGeometry x="230" y="5" width="80" height="30" as="geometry"/>
                </mxCell>
                <mxCell id="32" value="Descripcion" style="rounded=0;whiteSpace=wrap;html=1;fontSize=16;" vertex="1" parent="1">
                    <mxGeometry x="50" width="90" height="40" as="geometry"/>
                </mxCell>
                <mxCell id="33" value="" style="endArrow=classic;html=1;fontSize=16;exitX=0.376;exitY=-0.012;exitDx=0;exitDy=0;exitPerimeter=0;entryX=0.424;entryY=0.992;entryDx=0;entryDy=0;entryPerimeter=0;" edge="1" parent="1" source="4" target="32">
                    <mxGeometry width="50" height="50" relative="1" as="geometry">
                        <mxPoint x="400" y="180" as="sourcePoint"/>
                        <mxPoint x="450" y="130" as="targetPoint"/>
                        <Array as="points"/>
                    </mxGeometry>
                </mxCell>
                <mxCell id="35" value="Nombre" style="rounded=0;whiteSpace=wrap;html=1;fontSize=16;" vertex="1" parent="1">
                    <mxGeometry x="1020" y="50" width="100" height="40" as="geometry"/>
                </mxCell>
                <mxCell id="38" value="Apellido" style="rounded=0;whiteSpace=wrap;html=1;fontSize=16;" vertex="1" parent="1">
                    <mxGeometry x="1020" y="110" width="100" height="30" as="geometry"/>
                </mxCell>
                <mxCell id="40" value="Fecha Nacimiento" style="rounded=0;whiteSpace=wrap;html=1;fontSize=16;" vertex="1" parent="1">
                    <mxGeometry x="990" y="170" width="120" height="60" as="geometry"/>
                </mxCell>
                <mxCell id="42" value="Pais" style="rounded=0;whiteSpace=wrap;html=1;fontSize=16;" vertex="1" parent="1">
                    <mxGeometry x="1000" y="260" width="100" height="30" as="geometry"/>
                </mxCell>
                <mxCell id="44" value="Titulo" style="rounded=0;whiteSpace=wrap;html=1;fontSize=16;" vertex="1" parent="1">
                    <mxGeometry x="210" y="270" width="80" height="35" as="geometry"/>
                </mxCell>
                <mxCell id="46" value="Descripcion" style="rounded=0;whiteSpace=wrap;html=1;fontSize=16;" vertex="1" parent="1">
                    <mxGeometry x="310" y="220" width="90" height="40" as="geometry"/>
                </mxCell>
                <mxCell id="48" value="AÃ±o" style="rounded=0;whiteSpace=wrap;html=1;fontSize=16;" vertex="1" parent="1">
                    <mxGeometry x="360" y="160" width="110" height="40" as="geometry"/>
                </mxCell>
                <mxCell id="50" value="tipo contenido" style="rounded=1;whiteSpace=wrap;html=1;fontSize=16;" vertex="1" parent="1">
                    <mxGeometry x="515" y="140" width="70" height="40" as="geometry"/>
                </mxCell>
                <mxCell id="52" value="duracion" style="rounded=0;whiteSpace=wrap;html=1;fontSize=16;" vertex="1" parent="1">
                    <mxGeometry x="560" y="200" width="70" height="50" as="geometry"/>
                </mxCell>
                <mxCell id="58" value="Pais" style="rounded=0;whiteSpace=wrap;html=1;fontSize=16;" vertex="1" parent="1">
                    <mxGeometry x="445" y="90" width="100" height="30" as="geometry"/>
                </mxCell>
                <mxCell id="59" value="Nombre" style="rounded=0;whiteSpace=wrap;html=1;fontSize=16;" vertex="1" parent="1">
                    <mxGeometry x="180" y="410" width="80" height="40" as="geometry"/>
                </mxCell>
                <mxCell id="61" value="Descripcion" style="rounded=0;whiteSpace=wrap;html=1;fontSize=16;" vertex="1" parent="1">
                    <mxGeometry x="60" y="414" width="95" height="40" as="geometry"/>
                </mxCell>
                <mxCell id="62" value="" style="endArrow=classic;html=1;fontSize=16;exitX=0.333;exitY=0.061;exitDx=0;exitDy=0;exitPerimeter=0;" edge="1" parent="1" source="6" target="61">
                    <mxGeometry width="50" height="50" relative="1" as="geometry">
                        <mxPoint x="450" y="490" as="sourcePoint"/>
                        <mxPoint x="500" y="440" as="targetPoint"/>
                    </mxGeometry>
                </mxCell>
                <mxCell id="64" value="descripcion" style="rounded=0;whiteSpace=wrap;html=1;fontSize=16;" vertex="1" parent="1">
                    <mxGeometry x="525" y="630" width="120" height="60" as="geometry"/>
                </mxCell>
                <mxCell id="67" value="idioma" style="rounded=0;whiteSpace=wrap;html=1;fontSize=16;" vertex="1" parent="1">
                    <mxGeometry x="670" y="220" width="80" height="40" as="geometry"/>
                </mxCell>
                <mxCell id="69" value="tipo imagen" style="rounded=0;whiteSpace=wrap;html=1;fontSize=16;" vertex="1" parent="1">
                    <mxGeometry x="700" y="650" width="120" height="60" as="geometry"/>
                </mxCell>
            </root>
        </mxGraphModel>
    </diagram>
</mxfile>